# xmcd
#
# Track frame offsets:
#	150
#	10937
#	24136
#	37775
#	50832
#	62572
#	73430
#	86862
#	101606
#	115565
#	127654
#	142025
#	154794
#	168271
#	181182
#	194344
#	205921
#	217891
#	233050
#
# Disc length: 3252 seconds
#
# Revision: 1
# Processed by: cddbd v1.5.2PL0 Copyright (c) Steve Scherf et al.
# Submitted via: audiograbber 1.83.01
#
DISCID=fb0cb213
DTITLE=Django Reinhardt - Djangology [CD 8)
DYEAR=1900
DGENRE=Swing
TTITLE0=How high the Moon
TTITLE1=If dreams came true
TTITLE2=Hallelujah
TTITLE3=Stompin'  at the Savoy
TTITLE4=Djangology
TTITLE5=Swing Guitars
TTITLE6=Manoir de mes reves
TTITLE7=Are you in the Mood?
TTITLE8=Coquette
TTITLE9=Django's Tiger
TTITLE10=Embraceable you
TTITLE11=Echoes of France
TTITLE12=Yours and mine
TTITLE13=On the sunny Side of the Street
TTITLE14=I won't dance
TTITLE15=R-Vingt-Six
TTITLE16=How high the Moon
TTITLE17=Lover Man
TTITLE18=Blue Lou
EXTD=
EXTT0=
EXTT1=
EXTT2=
EXTT3=
EXTT4=
EXTT5=
EXTT6=
EXTT7=
EXTT8=
EXTT9=
EXTT10=
EXTT11=
EXTT12=
EXTT13=
EXTT14=
EXTT15=
EXTT16=
EXTT17=
EXTT18=
PLAYORDER=
